<svg version="1.1" id="Layer_1" xmlns="http://www.w3.org/2000/svg" xmlns:xlink="http://www.w3.org/1999/xlink" x="0px" y="0px"
	 width="100%" viewBox="0 0 2816 1536" enable-background="new 0 0 2816 1536" xml:space="preserve">
<path fill="#FDFDFD" opacity="1.000000" stroke="none" 
	d="
M1802.000000,1538.000000 
	C1201.402100,1538.000000 601.804199,1538.000000 2.103154,1538.000000 
	C2.103154,1026.127563 2.103154,514.255005 2.103154,2.191228 
	C940.431519,2.191228 1878.863159,2.191228 2817.647461,2.191228 
	C2817.647461,513.999817 2817.647461,1025.999878 2817.647461,1538.000000 
	C2479.587646,1538.000000 2141.293945,1538.000000 1802.000000,1538.000000 
M1695.752930,725.664978 
	C1689.975586,731.891052 1684.198364,738.117126 1676.976318,744.320190 
	C1671.789307,746.548096 1667.814209,749.698914 1667.387695,757.210754 
	C1660.981812,763.705383 1656.229492,771.860046 1646.459961,778.348267 
	C1643.719482,774.771606 1641.298340,771.177185 1638.433472,767.980652 
	C1634.668823,763.780090 1630.616821,759.829041 1626.572388,755.889954 
	C1622.959595,752.371338 1618.534302,751.121826 1613.700684,752.564148 
	C1604.788330,755.223755 1596.940552,765.977722 1606.077637,775.932312 
	C1615.514648,786.213684 1624.921387,796.529114 1634.594116,806.586548 
	C1646.861328,819.341614 1652.717041,818.890930 1664.531982,805.295898 
	C1684.581787,782.225403 1704.576416,759.101257 1725.005859,736.369690 
	C1731.364868,729.294006 1739.053711,723.413574 1746.229004,718.985901 
	C1746.221069,765.599304 1746.176636,812.212830 1746.262085,858.826050 
	C1746.270630,863.443054 1746.488403,868.209961 1747.637573,872.640564 
	C1749.544800,879.994263 1756.660278,884.010986 1764.744141,883.144226 
	C1772.347656,882.328979 1777.593872,877.230835 1778.395996,869.623779 
	C1778.673828,866.987915 1778.504639,864.302856 1778.506958,861.640320 
	C1778.526611,839.332153 1778.437988,817.023254 1778.588867,794.716003 
	C1778.687134,780.169128 1783.834106,767.992615 1796.602173,760.021423 
	C1813.025269,749.768677 1840.418701,751.492004 1846.394775,779.784058 
	C1847.417603,784.626831 1848.030273,789.643616 1848.084717,794.588257 
	C1848.301025,814.230286 1848.209961,833.875610 1848.257690,853.519714 
	C1848.269775,858.512878 1847.987915,863.546997 1848.515625,868.490295 
	C1849.646851,879.083557 1858.001465,884.837097 1868.404663,882.600708 
	C1876.290283,880.905457 1880.348389,875.661682 1880.469360,865.524414 
	C1880.719849,844.551208 1880.630859,823.573242 1880.581909,802.597534 
	C1880.563232,794.610962 1880.785889,786.573914 1880.000488,778.648926 
	C1878.080566,759.280640 1871.274170,742.481934 1853.443237,732.046753 
	C1835.379883,721.475464 1800.615112,722.762451 1784.824463,740.874512 
	C1783.717285,742.144287 1781.938110,742.828247 1778.707520,744.934814 
	C1778.707520,730.844788 1778.714844,718.578857 1778.705444,706.312927 
	C1778.696777,694.994629 1779.147217,683.649109 1778.504028,672.366455 
	C1777.966431,662.938416 1771.638794,657.651611 1762.808594,657.718689 
	C1754.018311,657.785461 1747.747559,663.230835 1746.595337,672.169128 
	C1746.087036,676.113281 1746.177124,680.134644 1744.458374,684.153076 
	C1734.765747,685.920410 1727.121704,691.251892 1720.372070,698.089661 
	C1719.994141,698.472534 1720.115479,699.348083 1719.082275,700.724426 
	C1717.579590,701.983276 1716.076782,703.242188 1713.112549,704.378601 
	C1707.624634,706.356873 1703.849976,709.665833 1703.501587,717.049011 
	C1702.460449,718.131104 1701.419312,719.213135 1698.980469,720.341370 
	C1698.150146,721.749817 1697.319824,723.158264 1695.752930,725.664978 
M478.935394,528.174438 
	C446.156250,521.707275 413.914307,524.236328 382.367859,534.754883 
	C340.432678,548.737427 306.351349,573.627808 283.677765,611.798584 
	C248.656219,670.757202 250.074203,753.473572 306.533356,814.597839 
	C335.366882,845.813782 371.961792,863.259033 413.815094,869.510925 
	C423.309540,870.929138 433.149994,871.824097 442.656311,870.983154 
	C460.502533,869.404541 471.245575,852.245239 466.014587,835.431152 
	C461.786804,821.841797 452.139557,815.181702 435.375397,815.010376 
	C385.460571,814.500183 337.294678,781.404358 322.493378,731.807373 
	C312.071899,696.886475 315.434479,663.259888 336.993622,633.656189 
	C368.726776,590.082031 413.117737,575.475647 465.439362,582.961304 
	C497.814209,587.593201 524.996765,603.363892 549.485413,624.249512 
	C553.936096,628.045410 557.753113,632.584167 562.519287,637.450317 
	C549.803894,647.677307 537.960938,657.202637 524.518311,668.014587 
	C572.437256,684.707458 617.862061,703.211609 664.630920,718.871643 
	C665.947144,708.100525 647.734924,579.481689 644.044556,572.159851 
	C631.518799,581.895142 619.051331,591.585083 606.251953,601.533081 
	C571.484009,563.334717 530.664429,537.850830 478.935394,528.174438 
M267.284973,944.592712 
	C269.227814,943.021423 271.143524,941.982544 273.371582,944.239624 
	C276.413605,947.321472 279.485107,950.379517 282.651978,953.331909 
	C334.439056,1001.611572 394.800934,1025.556641 466.063385,1015.727234 
	C513.627869,1009.166565 553.656006,986.780396 582.686584,948.691162 
	C620.268555,899.382324 629.186829,844.272522 607.056702,785.518005 
	C597.562256,760.310547 583.482239,737.693298 563.334900,719.436340 
	C538.140747,696.606079 509.096161,681.041077 475.483429,674.595337 
	C462.389679,672.084473 449.239075,669.539429 435.834930,671.442932 
	C417.312225,674.073425 406.644043,692.927002 414.426697,709.577515 
	C419.316711,720.039368 427.651031,725.912292 439.652740,726.108093 
	C456.815155,726.388000 473.716888,729.241516 489.155426,736.605225 
	C521.443237,752.005310 545.278870,775.659058 556.283875,810.577393 
	C565.850403,840.931824 564.384644,870.913574 548.592041,898.572815 
	C525.659912,938.736328 489.319061,958.951782 443.764984,961.805725 
	C405.262390,964.217957 371.123566,950.606506 340.108093,928.800476 
	C330.986481,922.387268 322.218170,915.135803 315.458405,905.064209 
	C327.421356,894.615295 340.684540,886.516235 352.128571,875.512207 
	C334.436859,866.463318 221.473282,825.302917 211.997665,824.678528 
	C218.499725,873.522705 224.964691,922.088135 231.647659,972.291260 
	C244.208725,962.529236 255.202805,953.984985 267.284973,944.592712 
M1171.455566,725.430725 
	C1165.539673,726.276001 1159.063354,725.881104 1153.833496,728.244446 
	C1145.027466,732.223938 1137.012451,737.954285 1127.852661,743.434021 
	C1127.852661,737.972107 1127.854248,732.450623 1127.852295,726.929199 
	C1127.845703,708.936035 1128.051758,690.939270 1127.743042,672.951294 
	C1127.583008,663.633789 1121.549805,657.927490 1112.724243,657.594177 
	C1103.737915,657.254700 1096.852661,663.404602 1096.055054,672.574341 
	C1095.882324,674.559814 1095.985840,676.570435 1095.985229,678.569519 
	C1095.966553,740.212341 1095.949585,801.855225 1095.939087,863.498047 
	C1095.938721,865.496399 1095.831909,867.516602 1096.076538,869.489258 
	C1096.985596,876.819641 1101.834839,881.842468 1108.817139,882.868896 
	C1115.608887,883.867310 1122.299805,880.322571 1125.129028,873.936096 
	C1126.300903,871.290894 1126.936646,868.408081 1128.077026,864.810730 
	C1131.304932,867.312073 1133.868896,869.320862 1136.455566,871.300110 
	C1166.596436,894.363403 1212.566040,885.170654 1230.857300,851.997314 
	C1245.539673,825.368835 1247.700439,797.338928 1236.067993,769.197693 
	C1224.638916,741.548035 1204.288940,725.403198 1171.455566,725.430725 
M817.398804,695.617310 
	C837.884827,688.597717 856.637878,691.215027 873.423767,705.468079 
	C876.442383,708.031128 879.719482,710.450867 883.233521,712.235229 
	C890.165466,715.755249 896.219421,714.302429 901.171326,708.543945 
	C905.110657,703.963135 906.054749,695.934387 902.551025,690.819519 
	C900.142090,687.302917 897.160400,683.941956 893.784851,681.361511 
	C867.065796,660.936401 837.311829,656.986450 805.973206,667.486267 
	C780.484314,676.026184 765.642822,698.170959 766.123291,723.795654 
	C766.602295,749.335022 780.802002,767.869385 806.912781,776.953491 
	C810.364197,778.154175 813.887512,779.151550 817.390808,780.198975 
	C826.310913,782.865845 835.366028,785.149902 844.123230,788.271606 
	C851.286194,790.824951 858.624695,793.545227 864.964844,797.622925 
	C883.398010,809.478394 882.423950,836.365234 863.572388,847.549255 
	C842.157227,860.254028 809.674255,854.006958 793.807861,834.175842 
	C791.321106,831.067810 788.966919,827.737915 785.985107,825.167542 
	C780.673706,820.588989 773.130981,820.515015 767.437073,824.367676 
	C761.525879,828.367249 758.522339,835.050354 761.205017,841.685852 
	C763.388855,847.087402 766.683716,852.344604 770.563965,856.706848 
	C798.798401,888.448608 847.484680,889.469971 875.642761,876.650269 
	C900.761169,865.214539 914.600281,841.049683 911.681946,813.514160 
	C909.712891,794.934875 901.541870,780.166626 884.872742,770.354492 
	C872.920715,763.318909 859.859314,759.754333 846.835693,755.724426 
	C835.741272,752.291504 824.479797,748.967346 814.004761,744.070801 
	C800.365417,737.695068 795.534241,721.171692 803.281799,708.446045 
	C806.237976,703.590515 811.649231,700.229736 817.398804,695.617310 
M1672.911499,848.618713 
	C1639.583984,862.172363 1600.176880,846.616699 1583.947632,813.830994 
	C1572.461182,790.626648 1571.213013,766.741638 1579.656738,742.155945 
	C1592.003052,706.206482 1627.817261,686.155151 1664.578125,695.496094 
	C1673.141602,697.672180 1681.270508,701.558472 1690.558594,705.014832 
	C1696.348877,698.488892 1702.629639,691.410217 1709.439941,683.734680 
	C1705.123901,680.594604 1702.099854,678.005310 1698.728149,676.000671 
	C1656.775513,651.058838 1594.599487,659.220276 1561.740234,706.004333 
	C1535.773682,742.974854 1534.146851,783.352417 1551.844238,823.749817 
	C1572.205811,870.229004 1624.781250,893.581543 1674.348511,880.671875 
	C1690.886108,876.364624 1705.347412,868.588806 1717.232910,856.411316 
	C1724.116333,849.358826 1723.844360,840.574768 1717.439209,834.134338 
	C1711.282349,827.943420 1703.699097,828.263794 1695.997314,834.000122 
	C1689.119629,839.122559 1681.612549,843.399658 1672.911499,848.618713 
M2216.308594,819.000061 
	C2216.260986,834.658020 2216.041748,850.317993 2216.223633,865.973267 
	C2216.352051,877.045349 2222.717285,883.461365 2232.610840,883.215393 
	C2242.117920,882.979004 2247.962158,876.802979 2248.237793,866.246521 
	C2248.472656,857.256714 2248.239258,848.255005 2248.441162,839.263672 
	C2248.498779,836.701294 2248.535645,833.470947 2249.994873,831.732788 
	C2254.348145,826.546936 2259.402588,821.949768 2264.600830,816.700684 
	C2278.077148,835.068481 2290.651611,852.252808 2303.289307,869.390442 
	C2305.654785,872.598022 2307.955078,875.959229 2310.840820,878.655396 
	C2317.102539,884.505737 2326.620361,884.798828 2332.822510,879.784302 
	C2339.097168,874.711304 2340.120850,865.879883 2335.273682,858.118896 
	C2334.395264,856.712463 2333.296631,855.442261 2332.283691,854.121521 
	C2319.110596,836.945923 2305.922363,819.781921 2292.773926,802.587341 
	C2290.996582,800.262756 2289.416992,797.786804 2287.473633,794.988831 
	C2298.841064,783.523682 2309.848633,772.423645 2320.853516,761.321411 
	C2323.667236,758.482910 2326.692383,755.819092 2329.238525,752.757690 
	C2334.838867,746.024353 2334.716553,737.972717 2329.223145,731.829468 
	C2324.130615,726.134460 2315.612793,725.793396 2308.425049,731.169983 
	C2306.306152,732.755005 2304.435791,734.698486 2302.573975,736.597839 
	C2287.418457,752.061279 2272.306885,767.567749 2257.140137,783.020264 
	C2254.926758,785.275391 2252.493896,787.315247 2248.241211,791.217896 
	C2248.241211,784.639282 2248.239014,780.441406 2248.241455,776.243591 
	C2248.260986,742.594849 2248.348877,708.945862 2248.265869,675.297363 
	C2248.237061,663.633484 2242.864746,657.816467 2232.610596,657.670837 
	C2222.693604,657.529907 2216.902100,663.714905 2216.360840,675.078125 
	C2216.265869,677.072998 2216.319580,679.075439 2216.319336,681.074341 
	C2216.316162,726.382874 2216.315186,771.691467 2216.308594,819.000061 
M2423.041260,884.041870 
	C2438.793945,884.492310 2453.434082,880.422852 2466.857422,872.416565 
	C2471.016357,869.936157 2474.905273,866.420288 2477.801514,862.544373 
	C2482.045898,856.864685 2481.186523,849.962830 2476.799561,845.086609 
	C2472.264893,840.046387 2465.932861,838.661072 2459.548096,841.780945 
	C2456.285645,843.375122 2453.390625,845.712646 2450.298340,847.665161 
	C2434.973389,857.342834 2418.847168,858.254944 2402.663086,850.682983 
	C2387.838867,843.747498 2381.272949,830.905212 2378.867920,814.318542 
	C2383.695557,814.318542 2387.331299,814.319458 2390.967041,814.318298 
	C2416.291748,814.310364 2441.616699,814.312927 2466.941406,814.279114 
	C2469.935791,814.275146 2472.971436,814.348511 2475.916260,813.907837 
	C2484.796631,812.578796 2488.478760,809.086060 2488.363281,800.062012 
	C2488.257324,791.826416 2487.748535,783.283630 2485.475342,775.439087 
	C2471.119629,725.896484 2412.950439,708.329468 2373.267578,741.378479 
	C2352.059082,759.041504 2344.945557,782.805298 2346.153809,809.276367 
	C2348.189453,853.886841 2377.736328,882.965637 2423.041260,884.041870 
M1992.999878,814.299072 
	C2004.658203,814.302856 2016.322144,814.538452 2027.973145,814.247986 
	C2040.663574,813.931580 2044.410889,809.855835 2044.694824,797.071289 
	C2044.724365,795.740356 2044.741699,794.401550 2044.638428,793.076294 
	C2041.886963,757.764893 2017.604004,722.531128 1971.125977,725.428467 
	C1940.729004,727.323425 1920.076050,742.667358 1908.510132,770.404053 
	C1901.399170,787.457336 1900.052612,805.321350 1903.936768,823.345947 
	C1909.199097,847.767151 1921.570679,867.299316 1945.290527,877.415955 
	C1972.623535,889.073547 1999.315430,885.857361 2024.857178,871.508362 
	C2028.220825,869.618713 2031.194336,866.563965 2033.543823,863.442993 
	C2037.751099,857.854553 2037.306274,850.990356 2033.145752,845.888794 
	C2028.941772,840.733765 2022.469604,838.992737 2016.085327,841.798035 
	C2012.768921,843.255249 2009.748779,845.420349 2006.675781,847.391785 
	C1994.180176,855.408325 1980.681274,857.262817 1966.443848,853.681824 
	C1948.894409,849.267761 1936.024414,832.703674 1936.271606,814.295898 
	C1954.496704,814.295898 1972.748413,814.295898 1992.999878,814.299072 
M1035.265381,780.999146 
	C1034.856812,796.304565 1035.181030,811.675476 1033.820190,826.895813 
	C1032.613892,840.388916 1024.377319,849.987122 1011.289612,853.294006 
	C997.684814,856.731506 984.637512,854.326965 974.762939,843.084900 
	C968.504456,835.959839 967.043579,826.981812 966.629150,817.907776 
	C966.310242,810.925964 966.621155,803.916565 966.604370,796.919556 
	C966.560486,778.594666 966.477844,760.269836 966.434875,741.944946 
	C966.400024,727.083618 951.651001,723.490479 942.005737,728.629639 
	C935.530579,732.079773 934.321350,738.165222 934.324829,744.824646 
	C934.337708,769.147705 934.127502,793.472351 934.368713,817.792786 
	C934.434326,824.410339 935.169678,831.159363 936.667053,837.599426 
	C941.642456,858.997559 954.145325,873.749817 975.603943,880.423340 
	C987.288269,884.057190 999.189941,884.907471 1011.180420,883.653809 
	C1042.044678,880.426636 1061.654175,861.352356 1065.968872,830.682312 
	C1066.709351,825.418945 1067.129883,820.069275 1067.169189,814.755615 
	C1067.334106,792.432983 1067.320801,770.108765 1067.309082,747.785156 
	C1067.307495,744.799072 1067.089722,741.794312 1066.714233,738.830872 
	C1065.904175,732.438660 1062.035400,728.837280 1055.919312,727.283325 
	C1044.132812,724.288635 1035.882812,729.834106 1035.375244,742.022156 
	C1034.862793,754.328064 1035.261719,766.671875 1035.265381,780.999146 
M1310.105103,725.536560 
	C1301.805786,727.764160 1292.801147,728.632874 1285.352661,732.499451 
	C1269.349365,740.806946 1260.776611,754.471985 1261.602539,773.138489 
	C1262.370117,790.486938 1271.811401,801.627930 1287.272339,807.889587 
	C1295.564575,811.247925 1304.320801,813.461304 1312.868530,816.188354 
	C1319.837891,818.411865 1326.943726,820.286377 1333.740479,822.949890 
	C1340.413208,825.564941 1344.744507,830.289124 1344.232788,838.202393 
	C1343.710449,846.278992 1339.768066,851.829346 1331.402222,854.041443 
	C1314.917969,858.400085 1299.729614,856.105591 1286.795410,844.028564 
	C1284.389038,841.781677 1281.883179,839.434753 1279.004150,837.942322 
	C1272.438965,834.538818 1265.650024,836.050659 1260.875977,841.406189 
	C1256.528687,846.282959 1255.795898,853.017761 1259.876709,858.904236 
	C1262.480835,862.660522 1265.784058,866.227722 1269.491333,868.875061 
	C1292.292114,885.156616 1317.390015,887.711243 1343.720825,879.873718 
	C1364.179932,873.783936 1375.721802,858.013489 1376.121826,836.922180 
	C1376.497314,817.129333 1366.461182,803.079834 1346.025391,795.850586 
	C1336.947510,792.639160 1327.468872,790.577148 1318.244751,787.755981 
	C1312.530884,786.008362 1306.641479,784.416443 1301.381470,781.691895 
	C1291.286621,776.463135 1290.351929,763.752319 1299.535645,757.060913 
	C1302.889893,754.616943 1307.214600,752.782898 1311.310181,752.217163 
	C1322.614014,750.655884 1333.142334,753.293640 1342.407349,760.231567 
	C1344.540894,761.829163 1346.541504,763.638062 1348.802368,765.025391 
	C1356.149048,769.533447 1363.925415,768.560852 1368.648438,762.712585 
	C1373.777710,756.361084 1373.522339,747.847351 1366.507446,742.254883 
	C1360.111328,737.155640 1352.784790,732.889832 1345.281128,729.593506 
	C1334.725464,724.956482 1323.217163,725.017090 1310.105103,725.536560 
M2120.947021,757.116821 
	C2136.843750,751.282532 2150.967773,754.298157 2163.562256,765.476868 
	C2165.777344,767.443054 2168.255859,769.265808 2170.903809,770.559570 
	C2176.743896,773.413147 2182.855957,772.197937 2187.422119,767.721375 
	C2192.390381,762.850830 2193.729248,756.472229 2190.260010,750.458923 
	C2188.312500,747.083374 2185.641602,743.879395 2182.636230,741.397705 
	C2147.699463,712.549438 2084.156494,720.786804 2065.246826,774.422607 
	C2060.743652,787.195740 2058.973877,800.299011 2060.188965,813.707397 
	C2061.756104,830.997620 2067.368408,846.763855 2079.027100,860.034790 
	C2104.183594,888.670410 2150.989014,891.339233 2179.347168,871.336914 
	C2183.590088,868.343994 2187.374023,864.276855 2190.336914,859.992004 
	C2194.712402,853.664124 2193.672852,846.828857 2188.675049,841.772217 
	C2183.919189,836.960388 2176.655762,836.046570 2170.343018,839.816772 
	C2167.510498,841.508423 2165.065674,843.843079 2162.415283,845.846863 
	C2139.843262,862.912109 2109.876709,855.399048 2097.929688,829.704529 
	C2092.984131,819.067871 2092.545410,807.835938 2093.679443,796.462341 
	C2095.417725,779.024475 2103.223633,765.532959 2120.947021,757.116821 
M1513.629517,868.642639 
	C1516.094727,865.515747 1518.965332,862.622681 1520.934326,859.209534 
	C1524.264038,853.437683 1523.032837,846.118896 1518.600464,841.703369 
	C1513.996704,837.117126 1507.381348,836.245483 1501.147217,839.855652 
	C1498.005737,841.674988 1495.289062,844.219543 1492.339478,846.380554 
	C1470.024414,862.729858 1439.707031,854.955078 1428.670898,829.640625 
	C1421.706177,813.665161 1421.677979,797.019897 1428.210327,780.983337 
	C1439.333740,753.675964 1468.987793,746.083557 1492.425781,764.009521 
	C1494.276245,765.424866 1495.933594,767.100525 1497.825317,768.452759 
	C1504.998413,773.580139 1512.309814,773.254883 1517.695923,767.671326 
	C1523.433350,761.723511 1523.925781,753.575684 1518.414429,746.873840 
	C1515.697876,743.570557 1512.375244,740.646423 1508.933716,738.077271 
	C1478.440918,715.313110 1417.919922,719.939697 1397.603516,770.267944 
	C1390.810913,787.094604 1388.714478,804.579834 1392.274902,822.212341 
	C1397.270508,846.952759 1409.626953,867.000183 1433.851685,877.245728 
	C1461.282471,888.847107 1487.753296,886.911926 1513.629517,868.642639 
M2555.679199,734.695557 
	C2552.093506,738.023071 2548.507812,741.350586 2544.254150,745.298096 
	C2543.530029,742.523804 2543.052734,740.697632 2542.577393,738.870911 
	C2540.379883,730.426636 2534.442383,726.110229 2525.783203,726.662292 
	C2517.534912,727.188232 2512.414307,731.765381 2511.129395,740.248108 
	C2510.585449,743.840698 2510.613770,747.540100 2510.610596,751.191162 
	C2510.579590,787.791321 2510.576416,824.391541 2510.633057,860.991638 
	C2510.638184,864.297058 2510.760254,867.677368 2511.443848,870.891785 
	C2513.121826,878.777588 2519.007568,883.208984 2527.261963,883.255920 
	C2535.553711,883.303101 2541.109619,878.983948 2542.873047,870.721619 
	C2543.490234,867.830933 2543.555420,864.784180 2543.562744,861.807983 
	C2543.604736,844.505981 2543.529053,827.203674 2543.549561,809.901611 
	C2543.557129,803.582703 2543.373535,797.236267 2543.874512,790.949951 
	C2545.772705,767.127258 2564.503174,748.821228 2589.703125,755.721313 
	C2591.618896,756.245850 2593.620605,756.559387 2595.602783,756.718933 
	C2603.994629,757.394226 2609.696045,752.797974 2610.862305,744.529419 
	C2612.241943,734.748352 2606.576416,727.281860 2595.946289,725.892761 
	C2582.100342,724.083679 2568.685791,725.265625 2555.679199,734.695557 
z"/>
<path fill="#3B86E1" opacity="1.000000" stroke="none" 
	d="
M479.787170,528.297913 
	C530.664429,537.850830 571.484009,563.334717 606.251953,601.533081 
	C619.051331,591.585083 631.518799,581.895142 644.044556,572.159851 
	C647.734924,579.481689 665.947144,708.100525 664.630920,718.871643 
	C617.862061,703.211609 572.437256,684.707458 524.518311,668.014587 
	C537.960938,657.202637 549.803894,647.677307 562.519287,637.450317 
	C557.753113,632.584167 553.936096,628.045410 549.485413,624.249512 
	C524.996765,603.363892 497.814209,587.593201 465.439362,582.961304 
	C413.117737,575.475647 368.726776,590.082031 336.993622,633.656189 
	C315.434479,663.259888 312.071899,696.886475 322.493378,731.807373 
	C337.294678,781.404358 385.460571,814.500183 435.375397,815.010376 
	C452.139557,815.181702 461.786804,821.841797 466.014587,835.431152 
	C471.245575,852.245239 460.502533,869.404541 442.656311,870.983154 
	C433.149994,871.824097 423.309540,870.929138 413.815094,869.510925 
	C371.961792,863.259033 335.366882,845.813782 306.533356,814.597839 
	C250.074203,753.473572 248.656219,670.757202 283.677765,611.798584 
	C306.351349,573.627808 340.432678,548.737427 382.367859,534.754883 
	C413.914307,524.236328 446.156250,521.707275 479.787170,528.297913 
z"/>
<path fill="#3A86E0" opacity="1.000000" stroke="none" 
	d="
M266.740906,945.016724 
	C255.202805,953.984985 244.208725,962.529236 231.647659,972.291260 
	C224.964691,922.088135 218.499725,873.522705 211.997665,824.678528 
	C221.473282,825.302917 334.436859,866.463318 352.128571,875.512207 
	C340.684540,886.516235 327.421356,894.615295 315.458405,905.064209 
	C322.218170,915.135803 330.986481,922.387268 340.108093,928.800476 
	C371.123566,950.606506 405.262390,964.217957 443.764984,961.805725 
	C489.319061,958.951782 525.659912,938.736328 548.592041,898.572815 
	C564.384644,870.913574 565.850403,840.931824 556.283875,810.577393 
	C545.278870,775.659058 521.443237,752.005310 489.155426,736.605225 
	C473.716888,729.241516 456.815155,726.388000 439.652740,726.108093 
	C427.651031,725.912292 419.316711,720.039368 414.426697,709.577515 
	C406.644043,692.927002 417.312225,674.073425 435.834930,671.442932 
	C449.239075,669.539429 462.389679,672.084473 475.483429,674.595337 
	C509.096161,681.041077 538.140747,696.606079 563.334900,719.436340 
	C583.482239,737.693298 597.562256,760.310547 607.056702,785.518005 
	C629.186829,844.272522 620.268555,899.382324 582.686584,948.691162 
	C553.656006,986.780396 513.627869,1009.166565 466.063385,1015.727234 
	C394.800934,1025.556641 334.439056,1001.611572 282.651978,953.331909 
	C279.485107,950.379517 276.413605,947.321472 273.371582,944.239624 
	C271.143524,941.982544 269.227814,943.021423 266.740906,945.016724 
z"/>
<path fill="#404141" opacity="1.000000" stroke="none" 
	d="
M1172.305176,725.426270 
	C1204.288940,725.403198 1224.638916,741.548035 1236.067993,769.197693 
	C1247.700439,797.338928 1245.539673,825.368835 1230.857300,851.997314 
	C1212.566040,885.170654 1166.596436,894.363403 1136.455566,871.300110 
	C1133.868896,869.320862 1131.304932,867.312073 1128.077026,864.810730 
	C1126.936646,868.408081 1126.300903,871.290894 1125.129028,873.936096 
	C1122.299805,880.322571 1115.608887,883.867310 1108.817139,882.868896 
	C1101.834839,881.842468 1096.985596,876.819641 1096.076538,869.489258 
	C1095.831909,867.516602 1095.938721,865.496399 1095.939087,863.498047 
	C1095.949585,801.855225 1095.966553,740.212341 1095.985229,678.569519 
	C1095.985840,676.570435 1095.882324,674.559814 1096.055054,672.574341 
	C1096.852661,663.404602 1103.737915,657.254700 1112.724243,657.594177 
	C1121.549805,657.927490 1127.583008,663.633789 1127.743042,672.951294 
	C1128.051758,690.939270 1127.845703,708.936035 1127.852295,726.929199 
	C1127.854248,732.450623 1127.852661,737.972107 1127.852661,743.434021 
	C1137.012451,737.954285 1145.027466,732.223938 1153.833496,728.244446 
	C1159.063354,725.881104 1165.539673,726.276001 1172.305176,725.426270 
M1189.520752,848.965881 
	C1214.047729,835.309204 1218.375732,787.002258 1195.350708,765.101379 
	C1178.693481,749.257385 1151.953491,750.810059 1138.374512,769.461609 
	C1124.914429,787.949829 1123.456177,808.479492 1131.929199,829.107300 
	C1141.493896,852.393066 1165.184814,860.538147 1189.520752,848.965881 
z"/>
<path fill="#414141" opacity="1.000000" stroke="none" 
	d="
M816.670166,695.902466 
	C811.649231,700.229736 806.237976,703.590515 803.281799,708.446045 
	C795.534241,721.171692 800.365417,737.695068 814.004761,744.070801 
	C824.479797,748.967346 835.741272,752.291504 846.835693,755.724426 
	C859.859314,759.754333 872.920715,763.318909 884.872742,770.354492 
	C901.541870,780.166626 909.712891,794.934875 911.681946,813.514160 
	C914.600281,841.049683 900.761169,865.214539 875.642761,876.650269 
	C847.484680,889.469971 798.798401,888.448608 770.563965,856.706848 
	C766.683716,852.344604 763.388855,847.087402 761.205017,841.685852 
	C758.522339,835.050354 761.525879,828.367249 767.437073,824.367676 
	C773.130981,820.515015 780.673706,820.588989 785.985107,825.167542 
	C788.966919,827.737915 791.321106,831.067810 793.807861,834.175842 
	C809.674255,854.006958 842.157227,860.254028 863.572388,847.549255 
	C882.423950,836.365234 883.398010,809.478394 864.964844,797.622925 
	C858.624695,793.545227 851.286194,790.824951 844.123230,788.271606 
	C835.366028,785.149902 826.310913,782.865845 817.390808,780.198975 
	C813.887512,779.151550 810.364197,778.154175 806.912781,776.953491 
	C780.802002,767.869385 766.602295,749.335022 766.123291,723.795654 
	C765.642822,698.170959 780.484314,676.026184 805.973206,667.486267 
	C837.311829,656.986450 867.065796,660.936401 893.784851,681.361511 
	C897.160400,683.941956 900.142090,687.302917 902.551025,690.819519 
	C906.054749,695.934387 905.110657,703.963135 901.171326,708.543945 
	C896.219421,714.302429 890.165466,715.755249 883.233521,712.235229 
	C879.719482,710.450867 876.442383,708.031128 873.423767,705.468079 
	C856.637878,691.215027 837.884827,688.597717 816.670166,695.902466 
z"/>
<path fill="#404141" opacity="1.000000" stroke="none" 
	d="
M1745.995361,684.120911 
	C1746.177124,680.134644 1746.087036,676.113281 1746.595337,672.169128 
	C1747.747559,663.230835 1754.018311,657.785461 1762.808594,657.718689 
	C1771.638794,657.651611 1777.966431,662.938416 1778.504028,672.366455 
	C1779.147217,683.649109 1778.696777,694.994629 1778.705444,706.312927 
	C1778.714844,718.578857 1778.707520,730.844788 1778.707520,744.934814 
	C1781.938110,742.828247 1783.717285,742.144287 1784.824463,740.874512 
	C1800.615112,722.762451 1835.379883,721.475464 1853.443237,732.046753 
	C1871.274170,742.481934 1878.080566,759.280640 1880.000488,778.648926 
	C1880.785889,786.573914 1880.563232,794.610962 1880.581909,802.597534 
	C1880.630859,823.573242 1880.719849,844.551208 1880.469360,865.524414 
	C1880.348389,875.661682 1876.290283,880.905457 1868.404663,882.600708 
	C1858.001465,884.837097 1849.646851,879.083557 1848.515625,868.490295 
	C1847.987915,863.546997 1848.269775,858.512878 1848.257690,853.519714 
	C1848.209961,833.875610 1848.301025,814.230286 1848.084717,794.588257 
	C1848.030273,789.643616 1847.417603,784.626831 1846.394775,779.784058 
	C1840.418701,751.492004 1813.025269,749.768677 1796.602173,760.021423 
	C1783.834106,767.992615 1778.687134,780.169128 1778.588867,794.716003 
	C1778.437988,817.023254 1778.526611,839.332153 1778.506958,861.640320 
	C1778.504639,864.302856 1778.673828,866.987915 1778.395996,869.623779 
	C1777.593872,877.230835 1772.347656,882.328979 1764.744141,883.144226 
	C1756.660278,884.010986 1749.544800,879.994263 1747.637573,872.640564 
	C1746.488403,868.209961 1746.270630,863.443054 1746.262085,858.826050 
	C1746.176636,812.212830 1746.221069,765.599304 1746.272461,717.376587 
	C1746.179077,712.407227 1746.042236,709.047241 1745.954956,704.802368 
	C1746.001465,697.318726 1745.998413,690.719788 1745.995361,684.120911 
z"/>
<path fill="#404140" opacity="1.000000" stroke="none" 
	d="
M1673.647461,848.334229 
	C1681.612549,843.399658 1689.119629,839.122559 1695.997314,834.000122 
	C1703.699097,828.263794 1711.282349,827.943420 1717.439209,834.134338 
	C1723.844360,840.574768 1724.116333,849.358826 1717.232910,856.411316 
	C1705.347412,868.588806 1690.886108,876.364624 1674.348511,880.671875 
	C1624.781250,893.581543 1572.205811,870.229004 1551.844238,823.749817 
	C1534.146851,783.352417 1535.773682,742.974854 1561.740234,706.004333 
	C1594.599487,659.220276 1656.775513,651.058838 1698.728149,676.000671 
	C1702.099854,678.005310 1705.123901,680.594604 1709.439941,683.734680 
	C1702.629639,691.410217 1696.348877,698.488892 1690.558594,705.014832 
	C1681.270508,701.558472 1673.141602,697.672180 1664.578125,695.496094 
	C1627.817261,686.155151 1592.003052,706.206482 1579.656738,742.155945 
	C1571.213013,766.741638 1572.461182,790.626648 1583.947632,813.830994 
	C1600.176880,846.616699 1639.583984,862.172363 1673.647461,848.334229 
z"/>
<path fill="#414241" opacity="1.000000" stroke="none" 
	d="
M2216.311035,818.000000 
	C2216.315186,771.691467 2216.316162,726.382874 2216.319336,681.074341 
	C2216.319580,679.075439 2216.265869,677.072998 2216.360840,675.078125 
	C2216.902100,663.714905 2222.693604,657.529907 2232.610596,657.670837 
	C2242.864746,657.816467 2248.237061,663.633484 2248.265869,675.297363 
	C2248.348877,708.945862 2248.260986,742.594849 2248.241455,776.243591 
	C2248.239014,780.441406 2248.241211,784.639282 2248.241211,791.217896 
	C2252.493896,787.315247 2254.926758,785.275391 2257.140137,783.020264 
	C2272.306885,767.567749 2287.418457,752.061279 2302.573975,736.597839 
	C2304.435791,734.698486 2306.306152,732.755005 2308.425049,731.169983 
	C2315.612793,725.793396 2324.130615,726.134460 2329.223145,731.829468 
	C2334.716553,737.972717 2334.838867,746.024353 2329.238525,752.757690 
	C2326.692383,755.819092 2323.667236,758.482910 2320.853516,761.321411 
	C2309.848633,772.423645 2298.841064,783.523682 2287.473633,794.988831 
	C2289.416992,797.786804 2290.996582,800.262756 2292.773926,802.587341 
	C2305.922363,819.781921 2319.110596,836.945923 2332.283691,854.121521 
	C2333.296631,855.442261 2334.395264,856.712463 2335.273682,858.118896 
	C2340.120850,865.879883 2339.097168,874.711304 2332.822510,879.784302 
	C2326.620361,884.798828 2317.102539,884.505737 2310.840820,878.655396 
	C2307.955078,875.959229 2305.654785,872.598022 2303.289307,869.390442 
	C2290.651611,852.252808 2278.077148,835.068481 2264.600830,816.700684 
	C2259.402588,821.949768 2254.348145,826.546936 2249.994873,831.732788 
	C2248.535645,833.470947 2248.498779,836.701294 2248.441162,839.263672 
	C2248.239258,848.255005 2248.472656,857.256714 2248.237793,866.246521 
	C2247.962158,876.802979 2242.117920,882.979004 2232.610840,883.215393 
	C2222.717285,883.461365 2216.352051,877.045349 2216.223633,865.973267 
	C2216.041748,850.317993 2216.260986,834.658020 2216.311035,818.000000 
z"/>
<path fill="#404040" opacity="1.000000" stroke="none" 
	d="
M2422.093750,884.039246 
	C2377.736328,882.965637 2348.189453,853.886841 2346.153809,809.276367 
	C2344.945557,782.805298 2352.059082,759.041504 2373.267578,741.378479 
	C2412.950439,708.329468 2471.119629,725.896484 2485.475342,775.439087 
	C2487.748535,783.283630 2488.257324,791.826416 2488.363281,800.062012 
	C2488.478760,809.086060 2484.796631,812.578796 2475.916260,813.907837 
	C2472.971436,814.348511 2469.935791,814.275146 2466.941406,814.279114 
	C2441.616699,814.312927 2416.291748,814.310364 2390.967041,814.318298 
	C2387.331299,814.319458 2383.695557,814.318542 2378.867920,814.318542 
	C2381.272949,830.905212 2387.838867,843.747498 2402.663086,850.682983 
	C2418.847168,858.254944 2434.973389,857.342834 2450.298340,847.665161 
	C2453.390625,845.712646 2456.285645,843.375122 2459.548096,841.780945 
	C2465.932861,838.661072 2472.264893,840.046387 2476.799561,845.086609 
	C2481.186523,849.962830 2482.045898,856.864685 2477.801514,862.544373 
	C2474.905273,866.420288 2471.016357,869.936157 2466.857422,872.416565 
	C2453.434082,880.422852 2438.793945,884.492310 2422.093750,884.039246 
M2453.380859,789.757202 
	C2456.713867,789.941772 2457.184326,788.241882 2456.546631,785.380310 
	C2453.476562,771.608276 2446.795654,760.375977 2433.141113,755.153381 
	C2419.384033,749.891602 2406.080078,751.847168 2394.586182,761.232361 
	C2385.871094,768.348755 2381.245605,777.942505 2379.527344,789.767822 
	C2404.392578,789.767822 2428.033936,789.767822 2453.380859,789.757202 
z"/>
<path fill="#404040" opacity="1.000000" stroke="none" 
	d="
M1992.000000,814.297485 
	C1972.748413,814.295898 1954.496704,814.295898 1936.271606,814.295898 
	C1936.024414,832.703674 1948.894409,849.267761 1966.443848,853.681824 
	C1980.681274,857.262817 1994.180176,855.408325 2006.675781,847.391785 
	C2009.748779,845.420349 2012.768921,843.255249 2016.085327,841.798035 
	C2022.469604,838.992737 2028.941772,840.733765 2033.145752,845.888794 
	C2037.306274,850.990356 2037.751099,857.854553 2033.543823,863.442993 
	C2031.194336,866.563965 2028.220825,869.618713 2024.857178,871.508362 
	C1999.315430,885.857361 1972.623535,889.073547 1945.290527,877.415955 
	C1921.570679,867.299316 1909.199097,847.767151 1903.936768,823.345947 
	C1900.052612,805.321350 1901.399170,787.457336 1908.510132,770.404053 
	C1920.076050,742.667358 1940.729004,727.323425 1971.125977,725.428467 
	C2017.604004,722.531128 2041.886963,757.764893 2044.638428,793.076294 
	C2044.741699,794.401550 2044.724365,795.740356 2044.694824,797.071289 
	C2044.410889,809.855835 2040.663574,813.931580 2027.973145,814.247986 
	C2016.322144,814.538452 2004.658203,814.302856 1992.000000,814.297485 
M1951.595093,760.410339 
	C1942.745483,767.978516 1936.540405,776.961670 1935.618652,789.298462 
	C1961.652466,789.298462 1987.059570,789.298462 2012.488525,789.298462 
	C2011.008789,758.975342 1978.155640,741.449768 1951.595093,760.410339 
z"/>
<path fill="#404140" opacity="1.000000" stroke="none" 
	d="
M1035.263306,779.999146 
	C1035.261719,766.671875 1034.862793,754.328064 1035.375244,742.022156 
	C1035.882812,729.834106 1044.132812,724.288635 1055.919312,727.283325 
	C1062.035400,728.837280 1065.904175,732.438660 1066.714233,738.830872 
	C1067.089722,741.794312 1067.307495,744.799072 1067.309082,747.785156 
	C1067.320801,770.108765 1067.334106,792.432983 1067.169189,814.755615 
	C1067.129883,820.069275 1066.709351,825.418945 1065.968872,830.682312 
	C1061.654175,861.352356 1042.044678,880.426636 1011.180420,883.653809 
	C999.189941,884.907471 987.288269,884.057190 975.603943,880.423340 
	C954.145325,873.749817 941.642456,858.997559 936.667053,837.599426 
	C935.169678,831.159363 934.434326,824.410339 934.368713,817.792786 
	C934.127502,793.472351 934.337708,769.147705 934.324829,744.824646 
	C934.321350,738.165222 935.530579,732.079773 942.005737,728.629639 
	C951.651001,723.490479 966.400024,727.083618 966.434875,741.944946 
	C966.477844,760.269836 966.560486,778.594666 966.604370,796.919556 
	C966.621155,803.916565 966.310242,810.925964 966.629150,817.907776 
	C967.043579,826.981812 968.504456,835.959839 974.762939,843.084900 
	C984.637512,854.326965 997.684814,856.731506 1011.289612,853.294006 
	C1024.377319,849.987122 1032.613892,840.388916 1033.820190,826.895813 
	C1035.181030,811.675476 1034.856812,796.304565 1035.263306,779.999146 
z"/>
<path fill="#414141" opacity="1.000000" stroke="none" 
	d="
M1310.969971,725.489746 
	C1323.217163,725.017090 1334.725464,724.956482 1345.281128,729.593506 
	C1352.784790,732.889832 1360.111328,737.155640 1366.507446,742.254883 
	C1373.522339,747.847351 1373.777710,756.361084 1368.648438,762.712585 
	C1363.925415,768.560852 1356.149048,769.533447 1348.802368,765.025391 
	C1346.541504,763.638062 1344.540894,761.829163 1342.407349,760.231567 
	C1333.142334,753.293640 1322.614014,750.655884 1311.310181,752.217163 
	C1307.214600,752.782898 1302.889893,754.616943 1299.535645,757.060913 
	C1290.351929,763.752319 1291.286621,776.463135 1301.381470,781.691895 
	C1306.641479,784.416443 1312.530884,786.008362 1318.244751,787.755981 
	C1327.468872,790.577148 1336.947510,792.639160 1346.025391,795.850586 
	C1366.461182,803.079834 1376.497314,817.129333 1376.121826,836.922180 
	C1375.721802,858.013489 1364.179932,873.783936 1343.720825,879.873718 
	C1317.390015,887.711243 1292.292114,885.156616 1269.491333,868.875061 
	C1265.784058,866.227722 1262.480835,862.660522 1259.876709,858.904236 
	C1255.795898,853.017761 1256.528687,846.282959 1260.875977,841.406189 
	C1265.650024,836.050659 1272.438965,834.538818 1279.004150,837.942322 
	C1281.883179,839.434753 1284.389038,841.781677 1286.795410,844.028564 
	C1299.729614,856.105591 1314.917969,858.400085 1331.402222,854.041443 
	C1339.768066,851.829346 1343.710449,846.278992 1344.232788,838.202393 
	C1344.744507,830.289124 1340.413208,825.564941 1333.740479,822.949890 
	C1326.943726,820.286377 1319.837891,818.411865 1312.868530,816.188354 
	C1304.320801,813.461304 1295.564575,811.247925 1287.272339,807.889587 
	C1271.811401,801.627930 1262.370117,790.486938 1261.602539,773.138489 
	C1260.776611,754.471985 1269.349365,740.806946 1285.352661,732.499451 
	C1292.801147,728.632874 1301.805786,727.764160 1310.969971,725.489746 
z"/>
<path fill="#404140" opacity="1.000000" stroke="none" 
	d="
M2120.246338,757.456177 
	C2103.223633,765.532959 2095.417725,779.024475 2093.679443,796.462341 
	C2092.545410,807.835938 2092.984131,819.067871 2097.929688,829.704529 
	C2109.876709,855.399048 2139.843262,862.912109 2162.415283,845.846863 
	C2165.065674,843.843079 2167.510498,841.508423 2170.343018,839.816772 
	C2176.655762,836.046570 2183.919189,836.960388 2188.675049,841.772217 
	C2193.672852,846.828857 2194.712402,853.664124 2190.336914,859.992004 
	C2187.374023,864.276855 2183.590088,868.343994 2179.347168,871.336914 
	C2150.989014,891.339233 2104.183594,888.670410 2079.027100,860.034790 
	C2067.368408,846.763855 2061.756104,830.997620 2060.188965,813.707397 
	C2058.973877,800.299011 2060.743652,787.195740 2065.246826,774.422607 
	C2084.156494,720.786804 2147.699463,712.549438 2182.636230,741.397705 
	C2185.641602,743.879395 2188.312500,747.083374 2190.260010,750.458923 
	C2193.729248,756.472229 2192.390381,762.850830 2187.422119,767.721375 
	C2182.855957,772.197937 2176.743896,773.413147 2170.903809,770.559570 
	C2168.255859,769.265808 2165.777344,767.443054 2163.562256,765.476868 
	C2150.967773,754.298157 2136.843750,751.282532 2120.246338,757.456177 
z"/>
<path fill="#414141" opacity="1.000000" stroke="none" 
	d="
M1513.085449,869.107788 
	C1487.753296,886.911926 1461.282471,888.847107 1433.851685,877.245728 
	C1409.626953,867.000183 1397.270508,846.952759 1392.274902,822.212341 
	C1388.714478,804.579834 1390.810913,787.094604 1397.603516,770.267944 
	C1417.919922,719.939697 1478.440918,715.313110 1508.933716,738.077271 
	C1512.375244,740.646423 1515.697876,743.570557 1518.414429,746.873840 
	C1523.925781,753.575684 1523.433350,761.723511 1517.695923,767.671326 
	C1512.309814,773.254883 1504.998413,773.580139 1497.825317,768.452759 
	C1495.933594,767.100525 1494.276245,765.424866 1492.425781,764.009521 
	C1468.987793,746.083557 1439.333740,753.675964 1428.210327,780.983337 
	C1421.677979,797.019897 1421.706177,813.665161 1428.670898,829.640625 
	C1439.707031,854.955078 1470.024414,862.729858 1492.339478,846.380554 
	C1495.289062,844.219543 1498.005737,841.674988 1501.147217,839.855652 
	C1507.381348,836.245483 1513.996704,837.117126 1518.600464,841.703369 
	C1523.032837,846.118896 1524.264038,853.437683 1520.934326,859.209534 
	C1518.965332,862.622681 1516.094727,865.515747 1513.085449,869.107788 
z"/>
<path fill="#434342" opacity="1.000000" stroke="none" 
	d="
M2556.272949,734.266846 
	C2568.685791,725.265625 2582.100342,724.083679 2595.946289,725.892761 
	C2606.576416,727.281860 2612.241943,734.748352 2610.862305,744.529419 
	C2609.696045,752.797974 2603.994629,757.394226 2595.602783,756.718933 
	C2593.620605,756.559387 2591.618896,756.245850 2589.703125,755.721313 
	C2564.503174,748.821228 2545.772705,767.127258 2543.874512,790.949951 
	C2543.373535,797.236267 2543.557129,803.582703 2543.549561,809.901611 
	C2543.529053,827.203674 2543.604736,844.505981 2543.562744,861.807983 
	C2543.555420,864.784180 2543.490234,867.830933 2542.873047,870.721619 
	C2541.109619,878.983948 2535.553711,883.303101 2527.261963,883.255920 
	C2519.007568,883.208984 2513.121826,878.777588 2511.443848,870.891785 
	C2510.760254,867.677368 2510.638184,864.297058 2510.633057,860.991638 
	C2510.576416,824.391541 2510.579590,787.791321 2510.610596,751.191162 
	C2510.613770,747.540100 2510.585449,743.840698 2511.129395,740.248108 
	C2512.414307,731.765381 2517.534912,727.188232 2525.783203,726.662292 
	C2534.442383,726.110229 2540.379883,730.426636 2542.577393,738.870911 
	C2543.052734,740.697632 2543.530029,742.523804 2544.254150,745.298096 
	C2548.507812,741.350586 2552.093506,738.023071 2556.272949,734.266846 
z"/>
<path fill="#3F86DB" opacity="1.000000" stroke="none" 
	d="
M1745.905396,705.687195 
	C1746.042236,709.047241 1746.179077,712.407227 1746.224854,716.376587 
	C1739.053711,723.413574 1731.364868,729.294006 1725.005859,736.369690 
	C1704.576416,759.101257 1684.581787,782.225403 1664.531982,805.295898 
	C1652.717041,818.890930 1646.861328,819.341614 1634.594116,806.586548 
	C1624.921387,796.529114 1615.514648,786.213684 1606.077637,775.932312 
	C1596.940552,765.977722 1604.788330,755.223755 1613.700684,752.564148 
	C1618.534302,751.121826 1622.959595,752.371338 1626.572388,755.889954 
	C1630.616821,759.829041 1634.668823,763.780090 1638.433472,767.980652 
	C1641.298340,771.177185 1643.719482,774.771606 1646.459961,778.348267 
	C1656.229492,771.860046 1660.981812,763.705383 1668.326172,756.374756 
	C1672.316772,751.806824 1675.368896,748.075012 1678.421021,744.343201 
	C1684.198364,738.117126 1689.975586,731.891052 1696.697021,724.908203 
	C1698.553467,722.866089 1699.465820,721.580688 1700.378174,720.295227 
	C1701.419312,719.213135 1702.460449,718.131104 1704.388916,716.307495 
	C1708.375488,711.877686 1711.474854,708.189453 1714.573975,704.501160 
	C1716.076782,703.242188 1717.579590,701.983276 1720.370117,700.418396 
	C1729.740479,701.970642 1737.822998,703.828918 1745.905396,705.687195 
z"/>
<path fill="#BED3EC" opacity="1.000000" stroke="none" 
	d="
M1745.954956,704.802368 
	C1737.822998,703.828918 1729.740479,701.970642 1720.831299,700.053345 
	C1720.115479,699.348083 1719.994141,698.472534 1720.372070,698.089661 
	C1727.121704,691.251892 1734.765747,685.920410 1745.226807,684.136963 
	C1745.998413,690.719788 1746.001465,697.318726 1745.954956,704.802368 
z"/>
<path fill="#BED3EC" opacity="1.000000" stroke="none" 
	d="
M1713.843262,704.439941 
	C1711.474854,708.189453 1708.375488,711.877686 1704.659180,715.811035 
	C1703.849976,709.665833 1707.624634,706.356873 1713.843262,704.439941 
z"/>
<path fill="#BED3EC" opacity="1.000000" stroke="none" 
	d="
M1677.698730,744.331665 
	C1675.368896,748.075012 1672.316772,751.806824 1668.654053,755.794922 
	C1667.814209,749.698914 1671.789307,746.548096 1677.698730,744.331665 
z"/>
<path fill="#BED3EC" opacity="1.000000" stroke="none" 
	d="
M1699.679321,720.318359 
	C1699.465820,721.580688 1698.553467,722.866089 1697.065430,724.359131 
	C1697.319824,723.158264 1698.150146,721.749817 1699.679321,720.318359 
z"/>
<path fill="#FAFAF9" opacity="1.000000" stroke="none" 
	d="
M1188.860840,849.361694 
	C1165.184814,860.538147 1141.493896,852.393066 1131.929199,829.107300 
	C1123.456177,808.479492 1124.914429,787.949829 1138.374512,769.461609 
	C1151.953491,750.810059 1178.693481,749.257385 1195.350708,765.101379 
	C1218.375732,787.002258 1214.047729,835.309204 1188.860840,849.361694 
z"/>
<path fill="#F6F6F5" opacity="1.000000" stroke="none" 
	d="
M2452.528076,789.762512 
	C2428.033936,789.767822 2404.392578,789.767822 2379.527344,789.767822 
	C2381.245605,777.942505 2385.871094,768.348755 2394.586182,761.232361 
	C2406.080078,751.847168 2419.384033,749.891602 2433.141113,755.153381 
	C2446.795654,760.375977 2453.476562,771.608276 2456.546631,785.380310 
	C2457.184326,788.241882 2456.713867,789.941772 2452.528076,789.762512 
z"/>
<path fill="#F6F6F6" opacity="1.000000" stroke="none" 
	d="
M1952.197510,759.986572 
	C1978.155640,741.449768 2011.008789,758.975342 2012.488525,789.298462 
	C1987.059570,789.298462 1961.652466,789.298462 1935.618652,789.298462 
	C1936.540405,776.961670 1942.745483,767.978516 1952.197510,759.986572 
z"/>
</svg>